<svg width="356" height="226" viewBox="0 0 356 226" fill="none" xmlns="http://www.w3.org/2000/svg">
<g clip-path="url(#clip0_1_1100)">
<path fill-rule="evenodd" clip-rule="evenodd" d="M316.731 25.5865C313.574 25.5865 311.012 23.027 311.012 19.867C311.012 16.7069 313.571 14.1474 316.731 14.1474C319.891 14.1474 322.451 16.7069 322.451 19.867C322.451 23.027 319.891 25.5865 316.731 25.5865ZM73.9143 162.695H43.3605C26.9152 162.695 13.4636 176.147 13.4636 192.592C13.4636 209.035 26.9182 222.489 43.3605 222.489H301.71C328.337 222.489 350.121 200.702 350.121 174.078C350.121 147.451 328.337 125.664 301.71 125.664C290.452 125.664 281.24 116.451 281.24 105.194C281.24 93.9359 290.452 84.7234 301.71 84.7234H326.345C338.052 84.7234 347.627 75.1452 347.627 63.4415C347.627 51.7378 338.052 42.1596 326.345 42.1596H295.194C290.636 42.1596 286.909 38.4318 286.909 33.8745C286.909 29.3173 290.636 25.5895 295.194 25.5895H300.684C303.829 25.5895 306.404 23.0151 306.404 19.8699C306.404 16.7248 303.829 14.1504 300.684 14.1504H264.649C257.059 14.1504 256.215 23.1162 237.044 23.1162H192.592C188.49 23.1162 185.131 26.4724 185.131 30.5778C185.131 34.6802 188.487 38.0394 192.592 38.0394H199.76C205.705 38.0394 210.571 42.9057 210.571 48.8512C210.571 54.7967 205.705 59.6631 199.76 59.6631H178.192C149.071 59.6631 144.96 67.2733 139.859 82.4106C134.758 97.5478 108.5 86.5 108.5 86.5L72.0504 98.7666C63.0876 98.7666 55.7568 106.097 55.7568 115.06C55.7568 124.02 63.0876 131.354 72.0504 131.354H73.9143C82.5323 131.354 89.5837 138.405 89.5837 147.026C89.5837 155.647 82.5323 162.698 73.9143 162.698V162.695Z" fill="#D6B0F4"/>
<path fill-rule="evenodd" clip-rule="evenodd" d="M39.6418 196.528C39.6418 196.528 35.3937 191.57 39.3802 188.422C39.3802 188.422 42.2905 186.659 44.6627 186.801C44.6627 186.801 41.3005 192.444 42.3886 193.005C43.4766 193.567 45.6853 186.451 45.6853 186.451C45.6853 186.451 52.3146 185.808 54.446 186.831C54.446 186.831 48.78 191.466 49.975 191.742C51.1611 192.019 57.288 187.467 57.288 187.467C57.288 187.467 63.4534 188.52 63.1235 192.28C62.7965 196.044 60.668 197.203 59.7345 197.105C58.8041 197.004 53.3402 194.917 53.2183 195.684C53.0994 196.448 56.3872 198.948 58.6881 199.067C58.6881 199.067 54.339 203.862 51.4554 202.48C48.5659 201.094 48.3162 198.9 46.5177 198.077C44.7162 197.254 43.1763 197.257 43.9225 198.095C44.6627 198.936 47.9268 199.751 48.9554 201.573C49.9839 203.392 50.9114 204.623 47.9149 204.171C44.9303 203.722 40.0698 201.534 39.8528 199.031L39.6418 196.528Z" fill="#251351"/>
<path fill-rule="evenodd" clip-rule="evenodd" d="M60.0912 192.381C60.0912 192.381 43.3428 191.736 39.6417 196.525C39.6417 196.525 38.8242 198.975 36.3093 201.204L35.9139 202.274C35.9139 202.274 38.8153 199.216 39.8528 199.028C39.8528 199.028 38.2296 193.095 60.0912 192.378V192.381Z" fill="white"/>
<path fill-rule="evenodd" clip-rule="evenodd" d="M36.3092 201.207C36.3092 201.207 32.7122 203.865 32.4595 208.618L33.1106 208.678C33.1106 208.678 34.261 203.767 36.333 201.844C38.411 199.923 36.3063 201.21 36.3063 201.21L36.3092 201.207Z" fill="white"/>
<path fill-rule="evenodd" clip-rule="evenodd" d="M24.7897 190.294C24.7897 190.294 31.5468 186.51 28.3957 181.373C28.3957 181.373 25.8688 178.222 23.1666 177.41C23.1666 177.41 24.6114 185.068 23.1666 185.25C21.7278 185.431 22.1737 176.602 22.1737 176.602C22.1737 176.602 15.0569 173.177 12.2626 173.448C12.2626 173.448 16.6801 180.927 15.2383 180.746C13.7965 180.567 8.84094 172.996 8.84094 172.996C8.84094 172.996 1.54285 171.646 0.368611 175.969C-0.799678 180.294 1.09099 182.455 2.17307 182.726C3.25217 182.996 10.1935 182.907 10.0152 183.808C9.83086 184.709 5.14581 186.147 2.53277 185.339C2.53277 185.339 5.41336 192.455 9.20064 192.096C12.9879 191.736 14.1562 189.394 16.4987 189.212C18.8413 189.034 20.5565 189.664 19.3853 190.294C18.211 190.925 14.2454 190.499 12.3517 192.111C10.4641 193.719 8.93012 194.709 12.4469 195.428C15.9607 196.151 22.2688 195.702 23.5263 192.997L24.7897 190.294Z" fill="#C4D1EB"/>
<path fill-rule="evenodd" clip-rule="evenodd" d="M3.70441 177.315C3.70441 177.315 22.6259 183.445 24.7901 190.291C24.7901 190.291 24.7009 193.353 26.5886 196.87V198.22C26.5886 198.22 24.6088 193.624 23.5267 192.994C23.5267 192.994 27.7628 187.045 3.70441 177.315Z" fill="#251351"/>
<path fill-rule="evenodd" clip-rule="evenodd" d="M26.5884 196.87C26.5884 196.87 29.5106 201.3 27.8458 206.695L27.0937 206.493C27.0937 206.493 27.822 200.553 26.2941 197.566C24.772 194.578 26.5884 196.87 26.5884 196.87Z" fill="#251351"/>
<path fill-rule="evenodd" clip-rule="evenodd" d="M35.5395 185.074C35.5395 185.074 26.6331 180.086 30.786 173.317C30.786 173.317 34.1125 169.158 37.6739 168.088C37.6739 168.088 35.7773 178.183 37.6739 178.421C39.5764 178.659 38.9819 167.021 38.9819 167.021C38.9819 167.021 48.3668 162.505 52.0501 162.862C52.0501 162.862 46.2265 172.723 48.129 172.482C50.0256 172.244 56.5597 162.267 56.5597 162.267C56.5597 162.267 66.1825 160.487 67.7254 166.188C69.2682 171.887 66.7771 174.738 65.3501 175.095C63.9262 175.451 54.7791 175.333 55.0169 176.519C55.2517 177.708 61.4291 179.607 64.8745 178.54C64.8745 178.54 61.0753 187.925 56.0871 187.447C51.0958 186.974 49.553 183.885 46.4643 183.647C43.3756 183.407 41.1193 184.242 42.6651 185.071C44.208 185.904 49.4311 185.345 51.9282 187.464C54.4223 189.584 56.4438 190.892 51.8063 191.84C47.1748 192.789 38.86 192.197 37.1953 188.636L35.5365 185.071L35.5395 185.074Z" fill="#C4D1EB"/>
<path fill-rule="evenodd" clip-rule="evenodd" d="M63.3345 167.972C63.3345 167.972 38.3902 176.049 35.5393 185.074C35.5393 185.074 35.6553 189.114 33.1611 193.746V195.526C33.1611 195.526 35.7801 189.468 37.1981 188.639C37.1981 188.639 31.6183 180.799 63.3345 167.972Z" fill="#251351"/>
<path fill-rule="evenodd" clip-rule="evenodd" d="M33.1612 193.743C33.1612 193.743 29.3174 199.584 31.5113 206.695L32.5012 206.43C32.5012 206.43 31.538 198.6 33.5536 194.658C35.5631 190.719 33.1612 193.743 33.1612 193.743Z" fill="#251351"/>
<path fill-rule="evenodd" clip-rule="evenodd" d="M39.7816 221.517C47.2165 219.517 52.6922 212.733 52.6922 204.665H17.7892C17.7892 212.73 23.265 219.517 30.6999 221.517H39.7846H39.7816Z" fill="#251351"/>
<path fill-rule="evenodd" clip-rule="evenodd" d="M32.822 221.517C25.3871 219.517 19.9143 212.733 19.9143 204.665H24.2545C24.2545 212.73 29.7214 219.52 37.1562 221.517H32.822Z" fill="#E0E8F5"/>
<path d="M53.0875 204.665H17.2183V205.2H53.0875V204.665Z" fill="white"/>
<path fill-rule="evenodd" clip-rule="evenodd" d="M271.412 213.515C317.965 213.515 355.704 215.836 355.704 218.696C355.704 221.556 317.965 223.878 271.412 223.878C224.859 223.878 187.12 221.556 187.12 218.696C187.12 215.836 224.859 213.515 271.412 213.515Z" fill="#251351"/>
<path d="M152.832 226C201.795 226 241.488 222.73 241.488 218.696C241.488 214.662 201.795 211.392 152.832 211.392C103.868 211.392 64.1754 214.662 64.1754 218.696C64.1754 222.73 103.868 226 152.832 226Z" fill="#251351"/>
<path fill-rule="evenodd" clip-rule="evenodd" d="M42.0317 23.8296L240.37 49.0979L239.633 177.577L45.4474 187.661L42.0317 23.8296Z" fill="#A238F6"/>
<path fill-rule="evenodd" clip-rule="evenodd" d="M49.5617 32.7567L232.38 54.3091L232.947 172.146L52.1153 179.884L49.5617 32.7567Z" fill="#EBF1F9"/>
<path fill-rule="evenodd" clip-rule="evenodd" d="M45.5515 187.655C45.5158 187.658 45.4801 187.661 45.4474 187.661L42.0318 23.8296L36.1011 27.5247L41.8356 186.507L45.4474 187.661L45.5515 187.655Z" fill="#460465"/>
<path fill-rule="evenodd" clip-rule="evenodd" d="M136.401 208.767L162.142 207.206L149.657 184.712L149.66 182.25L124.823 183.54L124.766 186.165L136.401 208.767Z" fill="#251351"/>
<path fill-rule="evenodd" clip-rule="evenodd" d="M162.143 207.206L136.402 208.767L136.205 215.036L162.053 213.223L162.181 207.278L162.143 207.206Z" fill="#6E317E"/>
<path fill-rule="evenodd" clip-rule="evenodd" d="M136.402 208.767L124.766 186.165L124.823 183.54L123.057 183.629L123.051 186.382L135.575 208.945L135.447 214.891L136.205 215.037V214.71L136.402 208.767Z" fill="#6E317E"/>
<path fill-rule="evenodd" clip-rule="evenodd" d="M121.823 214.924L135.566 209.362L135.575 208.948L132.573 203.538L121.93 203.324L98.1453 212.629L121.823 214.924ZM199.388 209.989L201.466 205.934L160.582 204.397L162.14 207.206L162.178 207.275L162.157 208.276L199.346 210.069L199.388 209.986V209.989Z" fill="#B24CCB"/>
<path fill-rule="evenodd" clip-rule="evenodd" d="M95.9724 219.243L120.052 221.743L135.531 214.906L135.448 214.891L135.566 209.359L121.823 214.924L98.1455 212.626L98.0117 213.036L95.9724 219.243Z" fill="#6E317E"/>
<path fill-rule="evenodd" clip-rule="evenodd" d="M162.065 212.673L205.462 214.903L199.388 209.989L199.347 210.069L162.16 208.279L162.065 212.673Z" fill="#6E317E"/>
<path fill-rule="evenodd" clip-rule="evenodd" d="M199.35 210.069L205.462 214.903L207.204 210.952L201.466 205.934L199.35 210.069Z" fill="#B24CCB"/>
<path fill-rule="evenodd" clip-rule="evenodd" d="M212.757 175.71C213.167 175.725 213.485 176.07 213.47 176.486C213.458 176.899 213.117 177.226 212.706 177.211C212.296 177.196 211.978 176.852 211.993 176.435C212.008 176.022 212.35 175.695 212.757 175.71Z" fill="#E4E5E5"/>
<path fill-rule="evenodd" clip-rule="evenodd" d="M218.785 175.356C219.192 175.371 219.514 175.716 219.499 176.129C219.484 176.545 219.142 176.869 218.735 176.858C218.327 176.843 218.006 176.498 218.021 176.085C218.033 175.671 218.378 175.344 218.785 175.356Z" fill="#E4E5E5"/>
<path fill-rule="evenodd" clip-rule="evenodd" d="M224.814 175.006C225.224 175.018 225.543 175.365 225.528 175.781C225.516 176.195 225.171 176.522 224.764 176.507C224.356 176.495 224.035 176.147 224.05 175.731C224.065 175.318 224.407 174.991 224.814 175.006Z" fill="#E4E5E5"/>
<path fill-rule="evenodd" clip-rule="evenodd" d="M231.407 173.843C232.267 173.87 232.935 174.598 232.909 175.469C232.879 176.34 232.163 177.021 231.306 176.994C230.45 176.965 229.778 176.236 229.808 175.368C229.835 174.497 230.554 173.813 231.41 173.843H231.407Z" fill="#E4E5E5"/>
<path fill-rule="evenodd" clip-rule="evenodd" d="M49.6985 40.679L232.403 58.9495L232.38 54.3091L49.5617 32.7567L49.6985 40.679Z" fill="#D6E4F4"/>
<path fill-rule="evenodd" clip-rule="evenodd" d="M55.519 35.6908C56.5208 35.7235 57.3056 36.5618 57.2729 37.5636C57.2402 38.5654 56.4019 39.3503 55.4 39.3176C54.3982 39.2848 53.6134 38.4465 53.6461 37.4447C53.6788 36.4429 54.5171 35.6551 55.519 35.6908Z" fill="white"/>
<path fill-rule="evenodd" clip-rule="evenodd" d="M62.6445 36.541C63.6463 36.5737 64.4311 37.412 64.3984 38.4168C64.3657 39.4186 63.5244 40.2034 62.5256 40.1707C61.5238 40.138 60.739 39.2997 60.7717 38.2949C60.8044 37.2931 61.6457 36.5083 62.6445 36.541Z" fill="white"/>
<path fill-rule="evenodd" clip-rule="evenodd" d="M69.7707 37.3941C70.7725 37.4268 71.5574 38.2651 71.5247 39.2669C71.492 40.2688 70.6507 41.0536 69.6518 41.0209C68.65 40.9882 67.8652 40.1498 67.8979 39.148C67.9306 38.1462 68.7689 37.3614 69.7707 37.3941Z" fill="white"/>
<path fill-rule="evenodd" clip-rule="evenodd" d="M310.771 208.996L318.687 208.416L329.134 215.262L321.217 215.845L310.771 208.996Z" fill="#ECB362"/>
<path fill-rule="evenodd" clip-rule="evenodd" d="M318.319 205.705C316.47 208.949 316.609 215.795 317.89 219.317C317.89 219.317 275.761 216.999 275.651 216.99C274.477 216.924 273.558 214.27 273.415 212.929C273.198 210.931 273.388 203.232 276.424 203.398L318.319 205.705Z" fill="#251351"/>
<path fill-rule="evenodd" clip-rule="evenodd" d="M276.025 204.367C276.025 204.367 274.542 205.423 274.399 210.292C274.328 212.655 274.53 214.552 275.722 215.732C275.856 215.863 275.663 216.802 275.654 216.99L322.082 219.546L338.364 208.113L338.405 207.186L276.028 204.367H276.025Z" fill="white"/>
<path fill-rule="evenodd" clip-rule="evenodd" d="M338.403 207.186L322.174 218.384L275.722 215.732L275.651 216.99L322.079 219.546L338.364 208.113L338.403 207.186Z" fill="#251351"/>
<path fill-rule="evenodd" clip-rule="evenodd" d="M335.786 206.897C335.804 207.239 335.831 207.584 335.866 207.929C335.866 207.929 323.824 215.667 321.633 217.513C321.633 217.513 319.941 212.611 321.523 206.784C321.523 206.784 335.32 198.145 336.556 197.477C336.556 197.477 336.235 198.802 335.994 200.827C335.982 200.931 335.971 201.038 335.956 201.148C335.777 202.718 335.661 204.662 335.774 206.707C335.777 206.772 335.78 206.838 335.789 206.903L335.786 206.897Z" fill="white"/>
<path fill-rule="evenodd" clip-rule="evenodd" d="M321.08 214.332C321.181 215.521 321.371 216.624 321.633 217.51C321.633 217.51 278.834 215.152 278.721 215.146C277.113 215.057 276.557 212.308 276.397 211.181C276.156 209.501 276.269 203.038 279.378 203.211L322.29 205.574C321.909 206.234 321.621 207.081 321.41 208.027C321.359 208.259 321.312 208.496 321.273 208.74C321 210.328 320.931 212.123 321.044 213.794C321.05 213.975 321.065 214.154 321.08 214.329V214.332Z" fill="white"/>
<path fill-rule="evenodd" clip-rule="evenodd" d="M279.266 203.208C279.266 203.208 279.239 203.208 279.224 203.208H279.257C279.299 203.208 279.337 203.208 279.379 203.211L322.29 205.575L292.533 203.934L279.379 203.211C279.34 203.211 279.302 203.208 279.266 203.208ZM278.347 203.437H278.344C278.326 203.449 278.306 203.461 278.288 203.473C278.306 203.461 278.329 203.449 278.347 203.437Z" fill="#EDEADD"/>
<path fill-rule="evenodd" clip-rule="evenodd" d="M279.26 203.211H279.227C279.191 203.211 279.156 203.214 279.12 203.217L279.043 203.226C278.986 203.232 278.93 203.241 278.873 203.253L278.79 203.274C278.737 203.285 278.686 203.3 278.636 203.318L278.558 203.345C278.499 203.369 278.439 203.395 278.38 203.425L278.35 203.44C278.329 203.452 278.309 203.464 278.291 203.476C278.243 203.502 278.196 203.535 278.151 203.568L278.083 203.618C278.041 203.651 278.002 203.681 277.964 203.716L277.892 203.785L277.788 203.892L277.72 203.966C277.684 204.008 277.652 204.052 277.616 204.094L277.562 204.165C277.515 204.231 277.467 204.299 277.426 204.37L277.363 204.475C277.337 204.513 277.313 204.558 277.292 204.602C277.268 204.644 277.25 204.683 277.229 204.724C277.206 204.766 277.188 204.807 277.167 204.852C277.146 204.894 277.128 204.938 277.108 204.983C277.09 205.027 277.072 205.069 277.054 205.114C277.036 205.158 277.018 205.206 277.001 205.25C276.971 205.331 276.941 205.414 276.914 205.497C276.7 206.127 276.555 206.829 276.465 207.528C276.269 209.026 276.308 210.5 276.406 211.184C276.567 212.311 277.122 215.06 278.731 215.15C278.731 215.15 278.769 215.15 278.835 215.156C278.835 215.156 278.853 215.156 278.864 215.156C279.382 215.182 281.371 215.292 284.227 215.45C283.127 215.15 282.173 214.439 281.489 213.512L277.197 213.241C277.146 213.238 277.111 213.197 277.114 213.146C277.117 213.098 277.155 213.06 277.203 213.06H277.206L281.311 213.253C280.196 211.559 279.941 209.255 281.189 207.382C280.556 207.334 280.018 207.287 279.608 207.257C279.031 207.206 278.701 207.177 278.701 207.177C278.701 207.177 279.031 207.177 279.611 207.168C279.73 207.168 279.86 207.168 280 207.168H280.752C280.936 207.168 281.136 207.168 281.338 207.168C282.161 206.089 283.338 205.851 284.605 205.851C285.265 205.851 285.949 205.916 286.62 205.958C289.352 206.13 292.087 206.214 294.819 206.356C296.38 206.44 297.938 206.505 299.495 206.582C303.393 206.772 307.287 206.96 311.184 207.147C311.921 207.186 312.662 207.236 313.402 207.257C315.186 207.299 316.574 207.474 317.686 207.795C318.328 207.834 318.928 207.872 319.463 207.902C320.206 207.947 320.822 207.985 321.244 208.009C321.327 207.605 321.422 207.192 321.535 206.772C321.535 206.772 321.642 206.704 321.839 206.582C321.975 206.211 322.13 205.869 322.305 205.566L279.394 203.202C279.352 203.202 279.313 203.199 279.272 203.199L279.26 203.211ZM319.457 208.574C320.135 208.636 320.7 208.687 321.107 208.726C321.039 209.145 320.985 209.552 320.947 209.953C320.536 209.406 320.055 208.949 319.457 208.574Z" fill="#E0E8F5"/>
<path fill-rule="evenodd" clip-rule="evenodd" d="M337.386 197.408L337.431 196.626L290.497 194.53L276.079 203.38L276.023 204.403C276.023 204.403 322.781 207.078 322.956 206.954C325.233 205.36 333.952 199.81 336.051 198.342C336.494 198.032 336.94 197.72 337.383 197.411L337.386 197.408Z" fill="#251351"/>
<path fill-rule="evenodd" clip-rule="evenodd" d="M337.431 196.626L290.553 193.511L276.082 203.381L322.986 205.964L337.431 196.626Z" fill="#C4D1EB"/>
<path fill-rule="evenodd" clip-rule="evenodd" d="M324.297 196.448L295.842 194.881L292.429 197.289L320.462 198.832L324.297 196.448Z" fill="#E7E4DE"/>
<path fill-rule="evenodd" clip-rule="evenodd" d="M310.197 197.376C310.06 195.984 310.806 192.595 311.868 191.683C309.623 191.362 307.355 191.166 305.099 190.96C299.248 190.425 293.389 189.985 287.53 189.572C284.685 189.373 281.837 189.183 278.986 189.004C277.803 188.93 276.617 188.862 275.434 188.796C274.688 188.755 274.664 188.963 274.771 189.652C274.899 190.458 274.973 191.27 275 192.084C275.035 193.184 274.967 194.278 274.836 195.369C274.729 196.237 274.922 197.156 274.265 197.866C273.534 198.657 272.645 198.829 271.373 199.231C270.553 199.486 271.132 200.069 271.973 200.206C274.637 200.64 277.479 200.985 280.713 201.264C285.384 201.668 290.063 201.954 294.739 202.299C299.144 202.626 303.58 203.404 307.982 203.731C309.938 203.877 311.892 204.02 313.845 204.165C311.449 202.441 310.494 200.328 310.2 197.376H310.197Z" fill="#251351"/>
<path fill-rule="evenodd" clip-rule="evenodd" d="M342.517 198.66L313.194 204.7L272.408 200.176L302.697 188.13C303.901 188.41 305.102 188.689 306.306 188.972C307.641 189.281 308.975 189.593 310.31 189.902C311.782 190.247 313.146 189.771 314.621 189.501C323.34 187.886 332.175 187.033 340.995 186.18C341.167 186.162 341.363 186.153 341.485 186.275C341.565 186.356 341.595 186.477 341.619 186.59C342.077 188.769 342.332 190.574 342.662 192.777C342.784 193.591 343.563 198.475 342.511 198.66H342.517Z" fill="white"/>
<path fill-rule="evenodd" clip-rule="evenodd" d="M272.681 199.421C278.543 200.051 288.862 200.871 293.859 201.365C300.206 201.986 305.842 202.824 312.239 203.261C312.531 203.285 312.816 203.354 313.113 203.327C313.33 203.303 313.542 203.22 313.756 203.181C317.314 202.548 331.09 199.813 334.568 199.198C336.607 198.835 338.444 198.229 340.65 197.83C340.849 197.798 341.033 197.67 341.173 197.53L341.253 197.432C341.408 197.212 341.408 196.929 341.402 196.659C341.372 195.223 341.072 193.906 340.903 192.5C340.704 190.847 340.424 189.188 339.865 187.616C339.794 187.42 339.72 187.215 339.598 187.045C339.324 186.671 338.846 186.489 338.385 186.477C337.442 186.442 336.387 186.834 335.439 186.962C334.336 187.108 333.23 187.256 332.127 187.405C327.258 188.062 322.382 188.722 317.537 189.51C316.083 189.75 314.624 189.991 313.179 190.297C312.549 190.425 311.912 190.651 311.276 190.713C309.537 190.874 307.751 190.645 306.015 190.482C294.792 189.417 284.75 188.716 273.475 188.54C274.001 189.706 274.31 191.228 274.376 192.678C274.382 192.833 274.388 192.982 274.388 193.133C274.396 193.71 274.361 194.26 274.28 194.765L274.263 194.863C274.236 195.021 274.215 195.17 274.185 195.312C273.906 196.888 273.522 197.89 272.687 199.427L272.681 199.421Z" fill="white"/>
<path fill-rule="evenodd" clip-rule="evenodd" d="M341.253 186.564L311.719 191.709L272.203 188.79C271.867 188.766 271.846 188.282 272.176 188.225L301.817 183.059L341.227 185.972C341.578 185.999 341.601 186.504 341.256 186.564H341.253Z" fill="white"/>
<path fill-rule="evenodd" clip-rule="evenodd" d="M268.029 190.951L297.611 192.01L338.611 183.249L306.493 175.059L267.847 189.851C267.271 190.074 267.41 190.927 268.029 190.948V190.951Z" fill="#251351"/>
<path fill-rule="evenodd" clip-rule="evenodd" d="M268.864 190.077C277.863 190.401 287.203 190.868 295.978 190.942C296.906 190.945 298.895 191.192 299.775 190.422C300.589 189.712 301.57 187.91 301.653 186.831C301.799 184.881 301.312 182.836 300.158 180.892C299.858 180.386 299.507 179.884 299.115 179.456C298.797 179.111 298.366 178.84 297.899 178.775C292.905 178.085 269.111 178.463 269.042 178.353C269.542 179.191 270.003 179.958 270.368 180.761C270.422 180.871 270.475 180.987 270.52 181.103C270.749 181.632 270.933 182.179 271.064 182.782C271.091 182.895 271.111 183.011 271.138 183.13C271.183 183.395 271.221 183.671 271.251 183.956C271.346 184.946 271.201 186.005 270.847 187.012C270.814 187.125 270.77 187.235 270.728 187.345C270.538 187.827 270.297 188.297 270.012 188.734C269.94 188.844 269.863 188.954 269.786 189.061C269.512 189.432 269.203 189.777 268.864 190.077Z" fill="white"/>
<path fill-rule="evenodd" clip-rule="evenodd" d="M300.328 185.241C300.274 183.844 299.07 180.588 297.896 179.83C305.072 177.773 338.248 170.859 339.048 171.073C339.874 171.296 340.424 171.967 340.665 172.494C342.127 175.713 341.655 181.718 338.614 183.246L297.613 192.007C299.751 189.97 300.44 188.202 300.328 185.238V185.241Z" fill="#251351"/>
<path fill-rule="evenodd" clip-rule="evenodd" d="M332.377 175.169C321.372 177.381 310.409 179.804 299.397 182.001C298.963 181.034 298.425 180.178 297.893 179.833C305.069 177.776 338.245 170.862 339.045 171.076C339.871 171.299 340.421 171.971 340.662 172.497C340.802 172.806 340.924 173.139 341.028 173.493C338.141 174.034 335.258 174.59 332.377 175.169Z" fill="white"/>
<path fill-rule="evenodd" clip-rule="evenodd" d="M268.089 178.763L298.048 179.836L339.048 171.076L306.678 169.916L268.038 178.175C267.693 178.249 267.738 178.751 268.089 178.763Z" fill="#251351"/>
<path fill-rule="evenodd" clip-rule="evenodd" d="M299.995 172.993L317.626 173.623L324.41 172.131C324.538 172.104 324.52 171.917 324.389 171.911L306.214 171.26L299.962 172.645C299.76 172.69 299.784 172.984 299.992 172.993H299.995Z" fill="#F6CD6C"/>
<path fill-rule="evenodd" clip-rule="evenodd" d="M341.346 173.347L312.186 178.427L270.374 175.338L301.077 162.847L341.378 172.232C341.982 172.372 341.958 173.24 341.349 173.347H341.346Z" fill="#251351"/>
<path fill-rule="evenodd" clip-rule="evenodd" d="M340.4 172.595C331.529 174.144 322.341 175.877 313.657 177.149C312.739 177.28 310.8 177.794 309.825 177.152C308.922 176.56 307.703 174.908 307.474 173.849C307.064 171.935 307.269 169.845 308.143 167.758C308.372 167.217 308.648 166.673 308.981 166.194C309.249 165.811 309.641 165.481 310.093 165.356C314.947 163.992 338.572 161.12 338.622 161.004C338.239 161.902 337.891 162.725 337.638 163.57C337.603 163.685 337.564 163.807 337.534 163.926C337.38 164.482 337.273 165.05 337.225 165.665C337.216 165.778 337.21 165.897 337.198 166.019C337.19 166.29 337.193 166.566 337.201 166.854C337.243 167.847 337.531 168.879 338.016 169.827C338.067 169.934 338.12 170.041 338.179 170.142C338.432 170.597 338.738 171.025 339.08 171.418C339.166 171.516 339.259 171.617 339.348 171.712C339.672 172.042 340.02 172.342 340.4 172.595Z" fill="white"/>
<path fill-rule="evenodd" clip-rule="evenodd" d="M308.571 172.092C308.431 170.701 309.18 167.312 310.242 166.399C302.854 165.341 269.042 163.014 268.278 163.338C267.491 163.67 267.036 164.414 266.872 164.967C265.862 168.353 267.149 174.242 270.371 175.339L312.183 178.427C309.784 176.7 308.862 175.041 308.571 172.092Z" fill="#C4D1EB"/>
<path fill-rule="evenodd" clip-rule="evenodd" d="M275.443 166.483C286.65 167.172 297.839 168.079 309.044 168.751C309.344 167.737 309.76 166.813 310.239 166.399C302.851 165.341 269.039 163.014 268.275 163.338C267.488 163.67 267.033 164.414 266.869 164.967C266.774 165.291 266.697 165.638 266.643 166.004C269.578 166.144 272.512 166.304 275.443 166.483Z" fill="#251351"/>
<path fill-rule="evenodd" clip-rule="evenodd" d="M339.627 161.28L310.093 166.429L268.278 163.341L300.188 157.779L339.595 160.692C339.945 160.719 339.972 161.224 339.624 161.283L339.627 161.28Z" fill="#C4D1EB"/>
<path fill-rule="evenodd" clip-rule="evenodd" d="M307.23 159.913L289.849 162.945L282.925 162.389C282.794 162.38 282.785 162.193 282.916 162.169L300.833 159.048L307.215 159.568C307.42 159.583 307.435 159.88 307.233 159.916L307.23 159.913Z" fill="#251351"/>
<path fill-rule="evenodd" clip-rule="evenodd" d="M332.494 204.573C332.952 205.1 333.011 205.691 332.782 206.318C332.782 206.318 332.782 206.321 332.782 206.327C332.36 207.493 330.966 208.792 329.349 210.091C329.144 210.257 328.959 210.409 328.799 210.549C328.757 210.584 328.712 210.623 328.674 210.659C328.641 210.688 328.611 210.718 328.579 210.745C327.072 212.136 327.639 212.454 324.928 215.272C321.842 218.486 319.714 218.545 319.108 218.254C318.599 218.004 319.637 216.301 320.79 214.384C320.847 214.291 320.9 214.196 320.957 214.104C321.111 213.848 321.263 213.59 321.414 213.334C322.764 211.027 322.419 209.945 322.098 206.518C321.837 203.729 317.758 190.937 317.758 190.937L323.68 189.918C323.68 189.918 325.46 200.1 327.422 201.669C328.475 202.504 329.649 202.513 330.657 203.138C330.728 203.179 330.799 203.224 330.865 203.271C331.441 203.649 332.024 204.044 332.488 204.571L332.494 204.573Z" fill="#F9AF79"/>
<path fill-rule="evenodd" clip-rule="evenodd" d="M332.494 204.573C332.952 205.1 333.011 205.691 332.782 206.318C332.782 206.318 332.782 206.321 332.782 206.327C332.265 207.493 330.909 208.786 329.346 210.079C329.141 210.248 328.959 210.403 328.802 210.549C328.76 210.584 328.716 210.623 328.677 210.659C328.644 210.688 328.614 210.718 328.582 210.745C327.075 212.136 327.642 212.454 324.931 215.272C321.846 218.486 319.717 218.545 319.111 218.254C318.602 218.004 319.64 216.301 320.793 214.383C321.394 214.163 324.185 213.028 326.299 210.326C328.16 207.953 329.399 204.903 330.666 203.138C330.737 203.179 330.808 203.224 330.874 203.271C331.45 203.649 332.033 204.044 332.497 204.57L332.494 204.573Z" fill="#172B57"/>
<path fill-rule="evenodd" clip-rule="evenodd" d="M284.763 200.878C284.401 202.704 281.794 202.4 278.886 201.69C275.976 200.979 276.669 201.824 272.528 201.363C268.389 200.905 267.132 199.362 267.004 198.747C266.894 198.2 268.939 198.01 271.133 197.754C271.41 197.727 271.686 197.692 271.966 197.656C274.442 197.347 276.258 195.744 278.506 194.43C280.637 193.191 283.821 188.119 283.821 188.119L289.502 188.568C289.502 188.568 286.52 193.093 285.37 195.061C284.689 196.22 284.728 197.751 284.811 198.931C284.853 199.57 284.897 200.227 284.766 200.872L284.763 200.878Z" fill="#F9AF79"/>
<path fill-rule="evenodd" clip-rule="evenodd" d="M278.886 201.69C275.976 200.979 276.669 201.824 272.528 201.363C268.389 200.905 267.132 199.362 267.004 198.747C266.894 198.2 268.939 198.01 271.133 197.754L271.151 197.796C271.151 197.796 273.633 199.558 277.082 199.642C279.894 199.707 282.867 198.904 284.808 198.937C284.85 199.576 284.894 200.233 284.763 200.878C284.401 202.704 281.794 202.4 278.886 201.69Z" fill="#172B57"/>
<path fill-rule="evenodd" clip-rule="evenodd" d="M297.401 117.466C297.401 117.466 296.048 114.151 294.559 114.015C293.069 113.881 288.337 113.135 287.995 113.81C287.659 114.487 287.995 116.922 289.012 117.802C290.025 118.682 296.319 120.103 296.319 120.103L297.401 117.463V117.466Z" fill="#F9AF79"/>
<path fill-rule="evenodd" clip-rule="evenodd" d="M306.53 164.563L318.772 197.501C318.772 197.501 320.65 197.683 322.452 197.165C324.111 196.687 326.013 195.432 326.013 195.432C326.013 195.432 322.978 163.805 317.41 157.227C311.845 150.648 306.53 164.563 306.53 164.563Z" fill="#251351"/>
<path fill-rule="evenodd" clip-rule="evenodd" d="M354.938 151.236C354.938 151.236 319.77 139.345 311.928 141.875C304.083 144.405 280.533 191.261 280.533 191.261C280.533 191.261 281.065 191.966 282.516 192.51C283.866 193.018 287.133 192.986 287.133 192.986C287.133 192.986 308.385 174.766 310.915 169.453C313.444 164.141 314.458 159.081 316.985 159.587C319.518 160.092 349.623 171.986 356.457 164.899C363.288 157.815 361.499 148.611 361.499 148.611L354.935 151.236H354.938Z" fill="#223F81"/>
<path fill-rule="evenodd" clip-rule="evenodd" d="M333.445 95.9136C332.883 94.7542 332.256 92.6941 331.947 89.0227C331.994 89.3854 332.627 94.017 334.411 96.6389C341.724 101.44 355.743 117.475 355.464 120.516C355.464 120.516 360.405 112.139 360.488 112.088C360.488 112.088 369.596 100.506 358.799 93.8713C353.315 90.4972 353.342 86.1689 353.57 82.4114C353.802 78.6508 352.075 62.4672 341.085 66.7004C341.085 66.7004 339.319 65.9156 338.528 66.0345C338.528 66.0345 339.173 66.1564 339.503 66.4953C338.228 66.421 336.406 66.5131 334.887 67.3782C330.856 69.6672 327.253 90.2089 333.445 95.9106V95.9136Z" fill="#251351"/>
<path fill-rule="evenodd" clip-rule="evenodd" d="M334.845 96.8799C334.81 96.8947 338.377 98.7468 341.061 98.0125C343.585 97.3258 345.232 94.0528 345.199 94.0439C344.129 93.8328 343.823 92.3613 343.844 86.0502L343.362 86.1423L335.238 87.7535C335.238 87.7535 335.419 90.3101 335.425 92.718C335.434 94.7425 335.306 96.6599 334.845 96.8769V96.8799Z" fill="#F9AF79"/>
<path fill-rule="evenodd" clip-rule="evenodd" d="M335.235 87.7565C335.235 87.7565 335.416 90.3131 335.422 92.721C339.97 92.5931 342.375 88.4462 343.359 86.1453L335.235 87.7565Z" fill="#ED7D57"/>
<path fill-rule="evenodd" clip-rule="evenodd" d="M344.197 85.2623C344.197 85.2623 346.581 81.4958 347.155 78.2763C347.562 75.9784 346.391 67.4555 337.83 68.6833C337.83 68.6833 335.344 68.927 333.005 70.5056C331.147 71.7601 328.465 74.4742 331.462 81.906L332.244 84.418L344.2 85.2593L344.197 85.2623Z" fill="#251351"/>
<path fill-rule="evenodd" clip-rule="evenodd" d="M333.716 90.0365C333.716 90.0365 344.477 90.2148 344.483 83.5113C344.492 76.8107 345.883 72.3189 339.016 71.9206C332.146 71.5252 330.808 74.0788 330.264 76.3172C329.717 78.5528 330.921 89.8165 333.719 90.0335L333.716 90.0365Z" fill="#F9AF79"/>
<path fill-rule="evenodd" clip-rule="evenodd" d="M334.114 71.7572C334.114 71.7572 337.06 79.6201 341.582 80.7824C346.103 81.9448 348.062 80.7349 348.062 80.7349C348.062 80.7349 344.596 77.9791 343.877 73.1722C343.877 73.1722 336.338 68.0175 334.114 71.7601V71.7572Z" fill="#251351"/>
<path fill-rule="evenodd" clip-rule="evenodd" d="M334.845 72.3962C334.845 72.3962 332.645 74.1531 332.107 75.8595C331.569 77.5658 331.331 81.0796 330.306 80.9607C330.306 80.9607 328.085 75.6157 330.579 72.5924C333.225 69.3878 334.845 72.3962 334.845 72.3962Z" fill="#251351"/>
<path fill-rule="evenodd" clip-rule="evenodd" d="M363.19 151.421C362.608 153.032 360.83 153.445 358.446 153.166C353.897 152.634 347.14 149.581 342.274 147.473C334.851 144.254 331.477 147.277 329.117 145.229C326.753 143.18 331.816 138.629 327.428 117.487C325.942 110.317 335.365 94.9446 335.365 94.9446C335.365 94.9446 336.18 99.3948 345.199 94.0439C345.517 93.8566 349.067 99.1094 352.488 105.59C356.258 112.739 359.867 121.375 358.806 125.825C356.784 134.307 364.882 146.739 363.193 151.421H363.19Z" fill="#844ABF"/>
<path fill-rule="evenodd" clip-rule="evenodd" d="M335.363 94.9474L329.807 117.754C329.807 117.754 329.114 118.985 328.029 120.739C325.484 124.856 320.772 131.845 317.755 132.556C316.269 132.906 313.103 131.667 309.604 129.898C302.981 126.551 295.153 121.31 295.153 121.31C294.648 118.275 297.288 115.798 297.288 115.798C297.288 115.798 313.147 121.759 314.72 121.872C318.153 122.118 321.646 105.548 324.854 100.028C327.173 96.0355 335.363 94.9474 335.363 94.9474Z" fill="#6F4ABF"/>
<path fill-rule="evenodd" clip-rule="evenodd" d="M363.19 151.421C362.608 153.032 360.83 153.445 358.446 153.166C355.298 151.795 341.697 146.528 341.852 142.957C342.078 137.672 344.465 137.502 342.779 130.983C341.424 125.745 353.99 116.006 355.993 113.89C359.763 121.039 359.867 121.378 358.802 125.828C356.781 134.31 364.879 146.742 363.19 151.424V151.421Z" fill="#6F4ABF"/>
<path fill-rule="evenodd" clip-rule="evenodd" d="M328.029 120.739C325.484 124.856 320.772 131.845 317.755 132.556C316.269 132.907 313.103 131.667 309.604 129.898C312.157 130.558 314.64 130.537 317.053 130.302C319.669 130.053 320.427 126.845 324.56 122.038C327.241 118.92 327.898 119.705 328.029 120.736V120.739Z" fill="#466FB5"/>
<path fill-rule="evenodd" clip-rule="evenodd" d="M340.627 130.858C340.627 130.858 338.35 129.086 336.198 129.506C334.048 129.928 332.993 131.405 333.079 132.08C333.163 132.755 334.301 134.651 335.948 134.821C337.592 134.987 342.274 133.807 342.274 133.807L340.63 130.858H340.627Z" fill="#F9AF79"/>
<path fill-rule="evenodd" clip-rule="evenodd" d="M345.196 94.0468C345.196 94.0468 353.966 94.5879 357.001 98.821C361.276 104.781 368.699 129.113 366.674 134.681L339.994 134.568C339.994 134.568 339.346 131.548 340.244 130.085C341.144 128.623 355.764 126.259 356.439 125.588C357.114 124.913 348.005 112.43 348.005 110.406C348.005 108.381 345.196 94.0498 345.196 94.0498V94.0468Z" fill="#6F4ABF"/>
<path fill-rule="evenodd" clip-rule="evenodd" d="M338.335 140.823H306.039L300.216 120.516H332.467L338.335 140.823Z" fill="#C4D1EB"/>
<path d="M348.374 140.029H306.146V140.82H348.374V140.029Z" fill="#859AC6"/>
<path fill-rule="evenodd" clip-rule="evenodd" d="M316.292 130.338C316.087 129.625 316.5 129.045 317.217 129.045C317.933 129.045 318.674 129.625 318.879 130.338C319.084 131.052 318.671 131.631 317.957 131.631C317.244 131.631 316.5 131.052 316.295 130.338H316.292Z" fill="#859AC6"/>
<path fill-rule="evenodd" clip-rule="evenodd" d="M338.362 86.2016C336.385 86.2105 335.285 86.1421 333.362 85.9757C332.589 85.9103 334.173 88.0566 338.469 86.3145C338.573 86.2729 338.514 86.1986 338.362 86.2016Z" fill="#EB795B"/>
<path fill-rule="evenodd" clip-rule="evenodd" d="M339.364 76.142C338.404 76.2134 338.457 76.9804 339.168 77.1587C346.742 79.0583 341.745 75.9607 339.364 76.142Z" fill="#251351"/>
<path fill-rule="evenodd" clip-rule="evenodd" d="M335.196 75.4909C336.097 75.8387 335.82 76.5551 335.089 76.5224C327.289 76.1419 332.972 74.6288 335.196 75.4909Z" fill="#251351"/>
<path fill-rule="evenodd" clip-rule="evenodd" d="M334.878 84.1861L334.83 84.1802C333.992 83.9959 333.549 83.8829 333.392 83.5648C333.246 83.2765 333.392 82.9495 333.656 82.3579C333.95 81.7039 334.393 80.711 334.78 79.07C334.807 78.9511 334.929 78.8798 335.047 78.9065C335.166 78.9333 335.241 79.0522 335.214 79.1771C334.821 80.8537 334.367 81.8704 334.063 82.5452C333.891 82.9346 333.742 83.2705 333.793 83.3686C333.864 83.5084 334.456 83.6421 334.934 83.7462C335.053 83.7729 335.131 83.8918 335.104 84.0137C335.08 84.1148 334.991 84.1832 334.887 84.1832L334.878 84.1861Z" fill="#EB795B"/>
<path fill-rule="evenodd" clip-rule="evenodd" d="M332.791 80.2443C332.244 80.1878 332.036 78.0564 333.365 78.1991C334.072 78.2734 333.686 80.3394 332.791 80.2443Z" fill="#251351"/>
<path fill-rule="evenodd" clip-rule="evenodd" d="M339.629 81.1034C339.082 81.041 338.874 78.9155 340.203 79.0581C340.91 79.1325 340.524 81.1985 339.629 81.1034Z" fill="#251351"/>
<path fill-rule="evenodd" clip-rule="evenodd" d="M85.7489 88.5463C86.7775 88.6206 87.7644 87.4018 88.0498 87.0391C89.1408 85.6538 89.8364 84.0277 90.1188 83.1151C89.9078 82.5087 89.6848 81.7417 89.45 80.8172C85.4962 78.1328 84.9582 76.147 87.8298 74.8568C88.4065 75.1808 89.1259 76.1797 89.9851 77.8563C90.6718 77.8296 91.189 77.4788 91.5428 76.804C90.7282 73.9769 90.1961 71.6819 89.9494 69.9161C91.8965 67.0207 96.4538 66.6075 102.482 67.3893C102.762 68.9946 102.991 70.695 103.172 72.4905C104.239 73.4715 104.1 77.1161 103.119 81.3136C103.609 83.7007 102.135 85.0028 98.6982 85.2228C98.6655 85.7995 98.716 86.4624 98.7279 86.8667C98.7368 87.2324 98.7517 87.9488 99.1322 88.0588L99.7684 88.2163C99.7059 96.7511 95.333 98.392 85.7489 88.5433V88.5463Z" fill="#F9AF79"/>
<path fill-rule="evenodd" clip-rule="evenodd" d="M102.483 67.3922C96.4509 66.6104 91.8937 67.0236 89.9496 69.919C90.1963 71.6819 90.7254 73.9798 91.5429 76.8069C91.1892 77.4787 90.669 77.8295 89.9852 77.8563C89.1261 76.1826 88.4097 75.1838 87.83 74.8568C84.9583 76.144 85.4994 78.1298 89.4531 80.8171C89.685 81.7417 89.9079 82.5086 90.122 83.1151C86.5666 82.3184 83.5909 79.1375 83.1717 77.7611C79.0217 69.5831 83.6503 66.1318 86.1266 64.8713C87.2206 56.7736 99.0224 63.7744 102.129 58.8337C108.627 62.5407 104.317 67.3209 102.492 67.3922H102.483Z" fill="#251351"/>
<path fill-rule="evenodd" clip-rule="evenodd" d="M94.7327 84.3932C95.6958 84.8688 97.0187 85.1453 98.6953 85.2256C98.6626 85.7933 98.6864 86.4474 98.7221 86.8516C97.0336 86.5276 95.7048 85.7071 94.7327 84.3932Z" fill="#ED7D57"/>
<path fill-rule="evenodd" clip-rule="evenodd" d="M107.724 89.5124C104.43 88.5581 101.475 87.9784 98.853 87.7733C98.3774 95.009 94.605 94.9584 87.5298 87.6217C80.7163 88.1954 79.3815 88.2817 75.6032 89.5064C67.4222 97.3218 66.6701 106.338 62.3953 116.642C67.1279 116.853 69.2534 117.423 72.4699 118.571C73.1625 116.101 73.7393 114.115 74.206 112.608C74.0752 126.196 74.0246 135.507 74.0544 140.54C89.7118 146.744 102.608 144.618 107.875 139.784C107.95 127.706 108.048 118.146 108.176 111.1C110.048 113.306 111.784 115.019 113.384 116.234C117.222 111.832 119.823 110.06 121.999 107.465C117.18 99.5543 110.274 92.1908 107.721 89.5094L107.724 89.5124Z" fill="#C75AFA"/>
<path fill-rule="evenodd" clip-rule="evenodd" d="M139.276 102.75C131.051 106.166 125.293 108.99 122.002 111.219L120.539 109.055C119.181 110.417 117.626 111.754 115.732 113.696C117.483 115.53 119.365 117.037 121.553 118.309C127.266 117.7 133.584 113.372 140.504 105.327C142.656 104.899 144.241 104.118 145.255 102.988C145.308 101.95 144.785 100.91 143.688 99.8695C146.557 97.9996 147.698 96.6619 147.113 95.8563C142.618 98.6358 140.008 100.934 139.279 102.75H139.276Z" fill="#F9AF79"/>
<path fill-rule="evenodd" clip-rule="evenodd" d="M107.875 139.79C107.566 140.965 108.847 147.867 109.058 151.464C110.244 158.798 110.176 167.392 109.685 177.422L92.3483 178.163C91.8935 175.888 91.4059 173.492 90.8916 170.948C90.3566 173.51 89.7888 175.96 89.2061 178.296L71.1556 179.066C71.0634 167.059 70.4302 156.274 72.1961 151.542C73.5249 147.416 73.6973 143.753 74.054 140.54C87.1163 144.889 98.3889 144.636 107.872 139.784L107.875 139.79Z" fill="#8920BA"/>
<path fill-rule="evenodd" clip-rule="evenodd" d="M76.4622 126.74C75.6238 126.865 74.8301 126.975 74.084 127.076C74.0453 133.069 74.0334 137.561 74.0513 140.545C74.7915 140.878 75.8319 141.259 76.6405 141.354C76.6375 140.971 76.5157 140.082 76.5127 139.701C76.4622 135.117 76.4443 130.798 76.4592 126.74H76.4622ZM114.742 114.73C112.435 112.81 110.241 109.691 108.158 105.378C108.392 106.879 108.485 108.892 108.437 111.413C110.209 113.47 111.859 115.078 113.384 116.237C113.853 115.699 114.305 115.2 114.739 114.733L114.742 114.73ZM77.1162 103.044C76.1025 106.311 75.1304 109.501 74.2058 112.611C74.1791 115.235 74.1583 117.703 74.1375 120.01C74.8093 119.947 75.5941 119.903 76.5276 119.882C76.6257 113.505 76.8189 107.89 77.1162 103.044Z" fill="#6F0D92"/>
<path fill-rule="evenodd" clip-rule="evenodd" d="M97.7798 107.744H115.016C115.807 107.744 116.351 108.389 116.223 109.18L112.355 133.598C112.23 134.386 111.481 135.034 110.69 135.034H93.4544C92.6637 135.034 92.1197 134.386 92.2445 133.598L96.1121 109.18C96.2369 108.389 96.9861 107.744 97.7768 107.744H97.7798Z" fill="#43205E"/>
<path fill-rule="evenodd" clip-rule="evenodd" d="M63.9825 116.737C63.2363 119.76 62.9271 122.525 63.5366 126.19C65.3975 128.892 72.9037 127.382 92.2325 124.151C92.9251 124.784 94.358 125.414 96.534 125.132C98.5555 124.627 98.6506 124.1 100.919 121.96C101.469 120.295 101.356 119.026 100.58 118.146C98.0263 119.647 96.6827 120.447 93.808 120.542C94.572 118.571 94.688 117.302 94.1529 116.728C93.1719 117.516 92.5327 118.696 92.2384 120.274C77.0001 119.612 72.981 119.701 70.9536 120.765C71.1735 119.808 71.3668 118.969 71.5392 118.241C69.1669 117.433 67.2376 116.963 63.9825 116.728V116.737Z" fill="#F9AF79"/>
<path fill-rule="evenodd" clip-rule="evenodd" d="M109.059 151.464C99.8728 160.029 87.5865 160.059 72.1995 151.545C70.4337 156.274 71.0669 167.062 71.1591 179.069L89.2096 178.299C89.7893 175.963 90.36 173.513 90.8951 170.951C91.4094 173.493 91.894 175.892 92.3518 178.166L109.689 177.425C110.176 167.398 110.248 158.801 109.062 151.467L109.059 151.464Z" fill="#251351"/>
<path fill-rule="evenodd" clip-rule="evenodd" d="M97.5865 79.7856C99.4177 79.7945 100.431 79.7291 102.212 79.5775C102.926 79.5151 101.46 81.5009 97.4884 79.8896C97.3932 79.851 97.4468 79.7826 97.5865 79.7856Z" fill="#EB795B"/>
<path fill-rule="evenodd" clip-rule="evenodd" d="M96.4688 69.8268C97.3577 69.8922 97.3071 70.6027 96.6501 70.7691C89.6404 72.526 94.266 69.6603 96.4688 69.8268Z" fill="#251351"/>
<path fill-rule="evenodd" clip-rule="evenodd" d="M99.9855 69.3543C99.1531 69.6753 99.4058 70.3382 100.084 70.3085C107.298 69.9548 102.043 68.5546 99.9855 69.3543Z" fill="#251351"/>
<path fill-rule="evenodd" clip-rule="evenodd" d="M101.421 77.6719L101.466 77.66C102.203 77.3628 102.589 77.1874 102.685 76.8752C102.771 76.5899 102.589 76.3134 102.256 75.814C101.888 75.264 101.326 74.4257 100.723 72.9928C100.678 72.8888 100.559 72.8442 100.452 72.8829C100.348 72.9274 100.297 73.0464 100.342 73.1534C100.96 74.6189 101.534 75.4781 101.915 76.0429C102.135 76.3699 102.322 76.6553 102.292 76.7534C102.251 76.8931 101.73 77.1071 101.311 77.2766C101.207 77.3212 101.157 77.4401 101.201 77.5471C101.237 77.6363 101.332 77.6868 101.424 77.669L101.421 77.6719Z" fill="#EB795B"/>
<path fill-rule="evenodd" clip-rule="evenodd" d="M101.891 73.1979C102.396 73.1444 102.589 71.1735 101.359 71.3072C100.705 71.3786 101.061 73.2871 101.891 73.1979Z" fill="#251351"/>
<path fill-rule="evenodd" clip-rule="evenodd" d="M96.9919 73.5398C97.4972 73.4833 97.6905 71.5154 96.4597 71.6492C95.8057 71.7205 96.1625 73.629 96.9919 73.5398Z" fill="#251351"/>
<path fill-rule="evenodd" clip-rule="evenodd" d="M149.678 60.5549L201.918 66.0842V166.352L149.678 168.385V60.5549ZM206.21 67.3298L224.451 69.3067L224.493 100.592L206.21 99.3344V67.3328V67.3298ZM224.502 104.893L224.537 130.548L206.21 129.285V103.633L224.502 104.893ZM224.543 134.853L224.585 165.469L206.21 166.186V133.589L224.543 134.853Z" fill="white"/>
<path fill-rule="evenodd" clip-rule="evenodd" d="M155.635 154.229C155.368 154.211 155.171 153.953 155.186 153.676C155.207 153.391 155.448 153.18 155.712 153.2C162.267 153.391 168.834 153.358 175.395 153.028C181.971 152.698 188.54 152.142 195.116 151.53C195.384 151.509 195.592 151.702 195.571 151.97C195.556 152.228 195.318 152.457 195.051 152.475C188.475 153.105 181.902 153.688 175.327 154.033C168.76 154.375 162.19 154.425 155.635 154.232V154.229Z" fill="#251351"/>
<path fill-rule="evenodd" clip-rule="evenodd" d="M155.739 148.081C155.475 148.063 155.285 147.814 155.299 147.537C155.323 147.252 155.564 147.032 155.829 147.053C162.363 147.311 168.909 147.353 175.455 147.13C182.007 146.907 188.561 146.443 195.122 145.956C195.387 145.938 195.595 146.119 195.574 146.396C195.559 146.654 195.321 146.883 195.057 146.901C188.493 147.406 181.941 147.891 175.38 148.132C168.831 148.376 162.282 148.343 155.736 148.084L155.739 148.081Z" fill="#251351"/>
<path fill-rule="evenodd" clip-rule="evenodd" d="M155.873 141.952C155.611 141.934 155.418 141.684 155.436 141.396C155.457 141.11 155.698 140.899 155.962 140.92C162.481 141.214 168.998 141.324 175.523 141.197C182.051 141.066 188.582 140.739 195.122 140.367C195.387 140.346 195.595 140.549 195.574 140.816C195.559 141.075 195.321 141.295 195.057 141.313C188.514 141.705 181.98 142.059 175.451 142.198C168.917 142.341 162.395 142.246 155.873 141.952Z" fill="#251351"/>
<path fill-rule="evenodd" clip-rule="evenodd" d="M156.016 135.801C155.751 135.783 155.561 135.533 155.576 135.257C155.6 134.972 155.834 134.752 156.102 134.781C162.597 135.135 169.096 135.322 175.594 135.287C182.102 135.254 188.609 135.049 195.125 134.79C195.39 134.781 195.598 134.98 195.577 135.239C195.562 135.498 195.324 135.718 195.06 135.727C188.541 136.012 182.03 136.238 175.523 136.291C169.016 136.342 162.511 136.167 156.019 135.804L156.016 135.801Z" fill="#251351"/>
<path fill-rule="evenodd" clip-rule="evenodd" d="M156.15 129.68C155.891 129.65 155.695 129.404 155.716 129.115C155.733 128.83 155.971 128.619 156.236 128.646C162.71 129.038 169.185 129.305 175.663 129.371C182.146 129.439 188.633 129.344 195.125 129.19C195.387 129.19 195.592 129.401 195.574 129.668C195.559 129.927 195.324 130.138 195.06 130.138C188.561 130.31 182.075 130.42 175.588 130.376C169.105 130.334 162.624 130.072 156.147 129.68H156.15Z" fill="#251351"/>
<path fill-rule="evenodd" clip-rule="evenodd" d="M156.263 123.541C155.998 123.512 155.808 123.274 155.823 122.985C155.843 122.7 156.078 122.48 156.34 122.507C162.797 122.977 169.256 123.298 175.719 123.461C182.185 123.622 188.654 123.642 195.125 123.613C195.39 123.613 195.592 123.824 195.574 124.082C195.559 124.341 195.324 124.558 195.06 124.558C188.585 124.606 182.113 124.609 175.648 124.463C169.182 124.314 162.719 123.984 156.263 123.535V123.541Z" fill="#251351"/>
<path fill-rule="evenodd" clip-rule="evenodd" d="M156.34 117.421C156.075 117.391 155.879 117.144 155.897 116.856C155.918 116.57 156.15 116.359 156.411 116.389C162.862 116.886 169.31 117.293 175.761 117.554C182.212 117.819 188.668 117.947 195.125 118.033C195.39 118.042 195.592 118.253 195.574 118.521C195.559 118.779 195.324 118.978 195.066 118.978C188.603 118.913 182.143 118.791 175.692 118.547C169.236 118.304 162.788 117.917 156.343 117.421H156.34Z" fill="#251351"/>
<path fill-rule="evenodd" clip-rule="evenodd" d="M156.352 111.282C156.087 111.261 155.891 111.014 155.909 110.726C155.927 110.441 156.159 110.23 156.417 110.259C162.868 110.812 169.316 111.282 175.767 111.645C182.221 112.007 188.672 112.257 195.125 112.456C195.39 112.465 195.592 112.685 195.574 112.944C195.559 113.202 195.325 113.401 195.066 113.393C188.609 113.22 182.155 112.991 175.707 112.646C169.251 112.302 162.803 111.835 156.352 111.282Z" fill="#251351"/>
<path fill-rule="evenodd" clip-rule="evenodd" d="M156.37 105.161C156.105 105.143 155.912 104.876 155.927 104.596C155.942 104.32 156.173 104.109 156.435 104.138C162.889 104.73 169.334 105.274 175.785 105.735C182.232 106.192 188.686 106.555 195.14 106.87C195.405 106.888 195.604 107.099 195.586 107.367C195.568 107.625 195.336 107.824 195.078 107.807C188.624 107.509 182.173 107.168 175.722 106.728C169.271 106.288 162.823 105.764 156.373 105.161H156.37Z" fill="#251351"/>
<path fill-rule="evenodd" clip-rule="evenodd" d="M156.396 99.0399C156.132 99.0102 155.942 98.7427 155.953 98.4662C155.974 98.1808 156.206 97.9787 156.468 98.0084C162.919 98.6565 169.366 99.2778 175.817 99.8307C182.262 100.384 188.719 100.844 195.167 101.281C195.431 101.299 195.637 101.51 195.61 101.778C195.592 102.028 195.36 102.236 195.101 102.218C188.645 101.808 182.197 101.359 175.746 100.824C169.295 100.288 162.847 99.6791 156.396 99.037V99.0399Z" fill="#251351"/>
<path fill-rule="evenodd" clip-rule="evenodd" d="M156.438 92.8982C156.174 92.8685 155.98 92.601 155.995 92.3245C156.01 92.048 156.248 91.837 156.509 91.8667C162.96 92.5742 169.411 93.2669 175.856 93.9209C182.307 94.5749 188.758 95.1516 195.206 95.6956C195.47 95.7253 195.675 95.9334 195.652 96.192C195.634 96.4596 195.402 96.6588 195.143 96.632C188.686 96.1147 182.236 95.5559 175.788 94.9227C169.337 94.2865 162.889 93.6057 156.441 92.8982H156.438Z" fill="#251351"/>
<path fill-rule="evenodd" clip-rule="evenodd" d="M156.476 86.7687C156.212 86.7419 156.022 86.4744 156.033 86.195C156.054 85.9096 156.286 85.7074 156.548 85.7461C162.999 86.5011 169.447 87.2562 175.897 88.0083C182.345 88.7634 188.796 89.4501 195.247 90.1101C195.512 90.1398 195.714 90.3687 195.69 90.6273C195.675 90.8859 195.44 91.0762 195.182 91.0465C188.725 90.4073 182.271 89.7385 175.826 89.0042C169.375 88.267 162.924 87.5149 156.476 86.7687Z" fill="#251351"/>
<path fill-rule="evenodd" clip-rule="evenodd" d="M156.539 77.1012C156.272 77.0774 156.061 76.8217 156.058 76.5453C156.061 76.2569 156.284 76.0548 156.545 76.0786C163.035 76.581 169.527 77.1369 176.026 77.7492C182.524 78.3616 189.016 78.9651 195.512 79.5151C195.777 79.5388 195.994 79.7648 195.988 80.0234C195.982 80.2731 195.762 80.4753 195.497 80.4634C189.002 79.9312 182.509 79.3486 176.011 78.754C169.518 78.1625 163.026 77.6036 156.536 77.1012H156.539Z" fill="#251351"/>
<path fill-rule="evenodd" clip-rule="evenodd" d="M164.681 73.3881C164.42 73.3643 164.206 73.1295 164.206 72.8501C164.212 72.5647 164.429 72.3506 164.687 72.3744C168.546 72.7579 172.407 73.1533 176.266 73.5546C180.128 73.9589 183.989 74.3899 187.848 74.7734C188.11 74.7972 188.324 75.035 188.321 75.2907C188.315 75.5582 188.104 75.7515 187.836 75.7307C183.977 75.3472 180.116 74.9399 176.254 74.5505C172.396 74.161 168.534 73.7627 164.675 73.3881H164.681Z" fill="#251351"/>
<path fill-rule="evenodd" clip-rule="evenodd" d="M155.567 160.362C155.3 160.344 155.097 160.085 155.115 159.809C155.133 159.532 155.371 159.312 155.641 159.333C162.214 159.485 168.793 159.375 175.366 158.95C181.959 158.525 188.538 157.844 195.122 157.116C195.39 157.089 195.598 157.258 195.577 157.526C195.559 157.793 195.325 158.022 195.054 158.07C188.466 158.804 181.891 159.506 175.3 159.952C168.721 160.394 162.134 160.513 155.564 160.362H155.567Z" fill="#251351"/>
<path fill-rule="evenodd" clip-rule="evenodd" d="M156.702 0L144.142 9.96167L149.499 13.8262L156.702 0Z" fill="#C4D1EB"/>
<path fill-rule="evenodd" clip-rule="evenodd" d="M141.452 8.19001L156.274 0.157654L136.996 7.29522L141.452 8.19001Z" fill="#C4D1EB"/>
<path fill-rule="evenodd" clip-rule="evenodd" d="M141.452 8.18991L143.72 14.6408L144.143 9.96167L156.702 0L156.274 0.157556L141.452 8.18991Z" fill="white"/>
<path fill-rule="evenodd" clip-rule="evenodd" d="M143.721 14.6409L146.518 11.6741L144.143 9.96179L143.721 14.6409Z" fill="#859AC6"/>
<path fill-rule="evenodd" clip-rule="evenodd" d="M141.577 13.1545C141.916 12.9612 141.613 12.5094 141.331 12.6699C141.164 12.7561 141.004 12.8423 140.843 12.9345C140.534 13.1128 140.801 13.5855 141.114 13.4071C141.268 13.318 141.423 13.2347 141.577 13.1545ZM98.6835 21.0679C98.4338 20.7677 98.0414 21.1452 98.2495 21.3949L98.5854 21.8319C98.8262 22.1203 99.2305 21.7576 99.0135 21.493L98.6865 21.0649L98.6835 21.0679ZM100.057 22.7118C99.7894 22.4443 99.4207 22.8456 99.6615 23.0864C99.7894 23.2202 99.9172 23.354 100.048 23.4848C100.298 23.7345 100.684 23.354 100.429 23.0983C100.304 22.9705 100.179 22.8426 100.057 22.7148V22.7118ZM101.612 24.1834C101.338 23.9545 100.99 24.3706 101.264 24.6025C101.404 24.7214 101.549 24.8374 101.692 24.9503C101.948 25.1644 102.319 24.766 102.025 24.5222C101.885 24.4123 101.745 24.2993 101.612 24.1863V24.1834ZM103.333 25.4527C102.991 25.2565 102.759 25.75 103.039 25.9105C103.193 26.0116 103.351 26.1067 103.508 26.2018C103.832 26.3862 104.088 25.9075 103.788 25.7351C103.636 25.643 103.484 25.5478 103.333 25.4527ZM105.197 26.4991C104.843 26.3475 104.659 26.8588 104.965 26.9896C105.128 27.0699 105.298 27.1472 105.464 27.2215C105.8 27.3642 106.005 26.8618 105.681 26.7251C105.518 26.6507 105.357 26.5764 105.197 26.4991ZM107.177 27.3107C106.865 27.1947 106.647 27.6912 107.004 27.825C107.177 27.8844 107.352 27.9409 107.527 27.9944C107.908 28.0895 108 27.5544 107.685 27.4742C107.516 27.4236 107.343 27.3672 107.177 27.3107ZM109.24 27.8814C108.919 27.8012 108.755 28.3214 109.127 28.4136C109.305 28.4522 109.486 28.4879 109.668 28.5206C110.063 28.5711 110.084 28.0271 109.766 27.9855C109.591 27.9528 109.415 27.9171 109.24 27.8814ZM111.356 28.2144C111.017 28.1728 110.931 28.7079 111.303 28.7554C111.484 28.7733 111.668 28.7911 111.853 28.803C112.171 28.8416 112.284 28.3095 111.888 28.262L111.356 28.2144ZM113.497 28.3155C113.143 28.3155 113.137 28.8595 113.5 28.8595C113.684 28.8595 113.865 28.8565 114.05 28.8506C114.386 28.8506 114.412 28.3066 114.032 28.3066C113.853 28.3125 113.672 28.3155 113.497 28.3155ZM115.637 28.1966C115.274 28.2411 115.352 28.7792 115.697 28.7376C115.881 28.7168 116.059 28.696 116.244 28.6722C116.591 28.6306 116.535 28.0895 116.169 28.1341C115.991 28.1579 115.815 28.1787 115.637 28.1966ZM117.757 27.8606C117.388 27.9528 117.546 28.473 117.873 28.3928C118.051 28.3541 118.229 28.3155 118.408 28.2739C118.761 28.1847 118.622 27.6615 118.28 27.7447C118.104 27.7863 117.932 27.825 117.757 27.8636V27.8606ZM119.829 27.3077C119.472 27.4415 119.689 27.9409 120.001 27.822C120.173 27.7655 120.349 27.7061 120.521 27.6466C120.866 27.5188 120.664 27.0134 120.34 27.1353C120.171 27.1947 120.001 27.2512 119.832 27.3077H119.829ZM121.829 26.5348C121.517 26.6686 121.71 27.1769 122.055 27.0283C122.225 26.951 122.388 26.8737 122.555 26.7934C122.709 26.7042 122.733 26.5675 122.685 26.4545L122.775 26.4724C123.17 26.5229 123.188 25.9789 122.876 25.9373C122.703 25.9016 122.531 25.863 122.361 25.8213C122.017 25.7351 121.883 26.2613 122.231 26.3475L121.832 26.5348H121.829ZM123.714 25.527C123.429 25.6905 123.666 26.1781 124.005 25.9848C124.16 25.8867 124.317 25.7857 124.469 25.6816C124.769 25.4676 124.442 25.0306 124.16 25.2327C124.014 25.3338 123.863 25.4289 123.714 25.5241V25.527ZM125.42 24.2606C125.165 24.4747 125.489 24.9117 125.783 24.6649C125.923 24.5431 126.057 24.4152 126.19 24.2844C126.446 24.0288 126.06 23.6483 125.807 23.898C125.679 24.0199 125.551 24.1417 125.42 24.2606ZM126.826 22.694C126.624 22.9734 127.058 23.3034 127.275 23.0002C127.382 22.8456 127.483 22.6851 127.579 22.5216C127.757 22.2095 127.284 21.9419 127.106 22.2511C127.02 22.3997 126.928 22.5513 126.829 22.691L126.826 22.694ZM127.686 20.8242C127.602 21.1541 128.126 21.3057 128.218 20.9401C128.259 20.7498 128.292 20.5685 128.316 20.3753C128.357 20.0334 127.819 19.9502 127.775 20.3188C127.754 20.4912 127.724 20.6547 127.689 20.8242H127.686ZM127.659 18.8086C127.739 19.1267 128.274 19.0286 128.179 18.654C128.126 18.4697 128.066 18.2884 127.995 18.11C127.852 17.7801 127.353 17.9941 127.495 18.3241C127.561 18.4787 127.614 18.6481 127.659 18.8086ZM126.711 16.9715C126.951 17.2628 127.347 16.9299 127.148 16.6504C127.038 16.4988 126.928 16.3531 126.809 16.2075C126.577 15.928 126.164 16.2818 126.387 16.5523C126.499 16.6891 126.604 16.8288 126.711 16.9715ZM125.284 15.4435C125.539 15.6575 125.911 15.2592 125.617 15.0154C125.468 14.8965 125.316 14.7895 125.159 14.6825C124.814 14.4863 124.585 14.9797 124.862 15.1373C125.007 15.2354 125.144 15.3335 125.284 15.4435ZM123.461 14.5011C123.818 14.5903 123.937 14.0612 123.601 13.9749C123.417 13.9244 123.226 13.8858 123.036 13.859C122.674 13.8144 122.614 14.3555 122.962 14.3971C123.128 14.4209 123.301 14.4565 123.461 14.4981V14.5011ZM121.434 14.4446C121.806 14.3525 121.645 13.8323 121.321 13.9125C121.134 13.9512 120.946 13.9987 120.768 14.0552C120.441 14.1771 120.572 14.6616 120.937 14.5725C121.098 14.5219 121.27 14.4773 121.437 14.4446H121.434ZM119.54 15.2473C119.846 15.0303 119.514 14.5992 119.234 14.7984C119.077 14.9054 118.925 15.0154 118.776 15.1313C118.494 15.3662 118.851 15.7764 119.118 15.5535C119.252 15.4465 119.398 15.3424 119.54 15.2473ZM118.018 16.6653C118.232 16.4096 117.834 16.038 117.59 16.3323C117.474 16.481 117.364 16.6326 117.26 16.7901C117.064 17.135 117.557 17.3639 117.715 17.0874C117.81 16.9417 117.914 16.802 118.018 16.6653ZM117.013 18.4846C117.135 18.1635 116.63 17.9555 116.499 18.3033C116.437 18.4816 116.38 18.663 116.333 18.8473C116.246 19.1981 116.773 19.3259 116.859 18.981C116.903 18.8146 116.954 18.6481 117.013 18.4846ZM116.689 20.515C116.689 20.191 116.148 20.1493 116.148 20.5417C116.157 20.732 116.175 20.9222 116.202 21.1125C116.244 21.4455 116.785 21.4068 116.737 21.0263C116.71 20.8569 116.695 20.6844 116.686 20.515H116.689ZM117.222 22.48C117.037 22.1559 116.573 22.4413 116.743 22.7386C116.829 22.9051 116.936 23.0745 117.043 23.2291C117.254 23.5234 117.694 23.2053 117.486 22.914C117.391 22.7772 117.299 22.6256 117.219 22.477L117.222 22.48ZM118.547 24.0436C118.289 23.8266 117.92 24.2279 118.211 24.4717C118.36 24.5906 118.509 24.7006 118.666 24.8047C118.993 24.9919 119.252 24.5549 118.97 24.3528C118.824 24.2547 118.687 24.1507 118.547 24.0407V24.0436ZM120.358 25.1109C120.019 24.9652 119.82 25.4706 120.138 25.6073C120.307 25.6816 120.477 25.7559 120.646 25.8243C120.982 25.9521 121.178 25.4616 120.848 25.3189C120.685 25.2535 120.521 25.1822 120.358 25.1079V25.1109ZM124.442 26.1067C124.618 26.1067 124.793 26.1067 124.969 26.0919C125.287 26.0532 125.4 26.5853 125.004 26.6359C124.817 26.6478 124.63 26.6507 124.445 26.6507C124.086 26.6507 124.086 26.1067 124.445 26.1067H124.442ZM126.52 25.8362C126.19 25.9194 126.3 26.4516 126.666 26.3594C126.841 26.3148 127.032 26.2494 127.204 26.19C127.549 26.0592 127.347 25.5568 127.02 25.6786C126.859 25.7351 126.684 25.7946 126.52 25.8362ZM128.453 25.0157C128.146 25.1911 128.411 25.6668 128.726 25.4854C128.887 25.3933 129.05 25.2952 129.205 25.1941C129.478 25.0365 129.255 24.5431 128.907 24.7393C128.762 24.8344 128.607 24.9265 128.456 25.0157H128.453ZM130.186 23.788C129.915 24.0139 130.257 24.436 130.536 24.2012C130.676 24.0823 130.816 23.9634 130.953 23.8385C131.208 23.6245 130.884 23.1905 130.59 23.4342C130.456 23.5531 130.322 23.672 130.186 23.785V23.788ZM131.74 22.3135C131.5 22.5573 131.868 22.9526 132.133 22.6881L132.507 22.2867C132.757 21.9865 132.314 21.6684 132.109 21.9181C131.987 22.0489 131.865 22.1827 131.74 22.3105V22.3135ZM133.179 20.7052C132.947 20.9847 133.37 21.3265 133.592 21.056L133.943 20.6398C134.175 20.3634 133.756 20.0156 133.527 20.2891L133.176 20.7023L133.179 20.7052ZM134.568 19.0375C134.342 19.311 134.755 19.6618 134.987 19.3824L135.332 18.9632C135.557 18.6897 135.144 18.3389 134.912 18.6184L134.568 19.0375ZM135.965 17.3639C135.73 17.6463 136.155 17.9852 136.378 17.7176L136.732 17.3074C136.972 17.019 136.541 16.6861 136.321 16.9507L135.965 17.3639ZM137.43 15.7378C137.187 15.9815 137.561 16.3769 137.823 16.1153L138.2 15.7318C138.456 15.4762 138.069 15.0957 137.82 15.3454L137.433 15.7378H137.43ZM139.036 14.2276C138.762 14.4565 139.11 14.8757 139.383 14.6468C139.517 14.5338 139.66 14.4179 139.8 14.3138C140.097 14.0671 139.722 13.6717 139.467 13.8828C139.321 13.9958 139.175 14.1117 139.036 14.2306V14.2276Z" fill="#859AC6"/>
<path fill-rule="evenodd" clip-rule="evenodd" d="M38.53 137.576L31.0684 140.635L33.1166 143.251L38.53 137.576Z" fill="#C4D1EB"/>
<path fill-rule="evenodd" clip-rule="evenodd" d="M30.0158 139.401L38.3008 137.591L27.9854 138.346L30.0158 139.401Z" fill="#C4D1EB"/>
<path fill-rule="evenodd" clip-rule="evenodd" d="M30.0161 139.401L30.2093 142.837L31.0685 140.635L38.5301 137.576L38.3012 137.591L30.0161 139.401Z" fill="white"/>
<path fill-rule="evenodd" clip-rule="evenodd" d="M30.2091 142.838L31.9749 141.794L31.0682 140.635L30.2091 142.838Z" fill="#859AC6"/>
<path fill-rule="evenodd" clip-rule="evenodd" d="M28.8565 141.185C29.0319 141.164 29.0706 141.434 28.8863 141.458L28.6128 141.491C28.4344 141.515 28.3987 141.241 28.5801 141.217L28.8536 141.185H28.8565ZM13.2883 158.813C13.1248 158.721 13.2437 158.495 13.4072 158.566C13.4874 158.605 13.5707 158.641 13.6509 158.676C13.8174 158.748 13.7104 159 13.5439 158.932L13.2883 158.813ZM14.3376 159.214C14.1712 159.173 14.2277 158.902 14.412 158.95C14.4982 158.973 14.5844 158.994 14.6706 159.018C14.8519 159.063 14.7776 159.33 14.6082 159.286C14.516 159.262 14.4268 159.238 14.3347 159.214H14.3376ZM15.4465 159.413C15.2651 159.39 15.277 159.14 15.4643 159.14C15.5535 159.146 15.6427 159.149 15.7319 159.152C15.9132 159.152 15.9132 159.428 15.7319 159.428C15.6397 159.422 15.5446 159.422 15.4495 159.416L15.4465 159.413ZM16.5791 159.354C16.3978 159.378 16.3502 159.128 16.5286 159.083C16.6148 159.069 16.701 159.048 16.7902 159.027C16.9656 158.982 17.031 159.25 16.8585 159.295C16.7664 159.318 16.6742 159.339 16.5821 159.354H16.5791ZM17.6582 159C17.5185 159.08 17.3609 158.852 17.5363 158.753C17.6166 158.715 17.6939 158.67 17.7712 158.629C17.9317 158.536 18.0625 158.777 17.9109 158.866C17.8306 158.914 17.7444 158.959 17.6612 159H17.6582ZM18.5976 158.364C18.449 158.489 18.2854 158.269 18.4133 158.159C18.4757 158.102 18.5471 158.037 18.6035 157.975C18.7343 157.841 18.9246 158.043 18.8027 158.168C18.7343 158.236 18.666 158.302 18.5976 158.364ZM19.3378 157.511C19.2367 157.651 19.0167 157.523 19.1119 157.356C19.1624 157.282 19.21 157.208 19.2575 157.13C19.3437 156.979 19.5875 157.107 19.4924 157.273C19.4448 157.353 19.3943 157.434 19.3408 157.511H19.3378ZM19.864 156.512C19.8045 156.676 19.5429 156.586 19.6083 156.411C19.641 156.328 19.6707 156.242 19.7034 156.158C19.7718 155.98 20.0245 156.087 19.9621 156.25C19.9294 156.337 19.8997 156.426 19.864 156.512ZM20.1999 155.445C20.1553 155.623 19.8878 155.555 19.9324 155.379L19.9948 155.115C20.0423 154.931 20.3069 155.008 20.2623 155.174L20.1999 155.445ZM20.4258 154.36C20.405 154.52 20.1315 154.508 20.1553 154.309L20.2029 154.039C20.2237 153.878 20.5001 153.89 20.4764 154.089L20.4258 154.36ZM20.622 153.275C20.6012 153.435 20.3277 153.423 20.3515 153.224L20.402 152.954C20.4466 152.781 20.6963 152.82 20.6726 153.004L20.622 153.272V153.275ZM20.845 152.207C20.8004 152.383 20.5328 152.317 20.5774 152.139C20.6012 152.05 20.622 151.958 20.6458 151.869C20.6874 151.702 20.9579 151.759 20.9104 151.943C20.8836 152.026 20.8628 152.121 20.842 152.207H20.845ZM21.1185 151.235C21.0233 151.307 20.8569 151.215 20.9104 151.072C20.9342 151.012 20.9579 150.956 20.9847 150.899C20.9728 150.831 21.0144 150.775 21.0709 150.754C21.166 150.691 21.3236 150.778 21.279 150.911C21.2998 150.971 21.3206 151.03 21.3444 151.087C21.4009 151.235 21.2136 151.334 21.1185 151.235ZM21.6714 150.24C21.5495 150.385 21.3504 150.219 21.4514 150.076C21.5079 149.999 21.5674 149.924 21.6298 149.853C21.7398 149.722 21.9568 149.889 21.8349 150.034C21.7755 150.1 21.7219 150.171 21.6714 150.24ZM22.4265 149.514C22.2541 149.612 22.1352 149.363 22.2778 149.282C22.3581 149.232 22.4384 149.181 22.5246 149.137C22.6732 149.05 22.8219 149.285 22.6554 149.38C22.5781 149.422 22.5038 149.467 22.4295 149.517L22.4265 149.514ZM23.3897 149.086C23.2083 149.134 23.1489 148.863 23.3183 148.822C23.4105 148.798 23.5026 148.777 23.5948 148.756C23.7553 148.717 23.8415 148.979 23.6483 149.027C23.5621 149.044 23.4759 149.065 23.3897 149.089V149.086ZM24.448 148.92C24.2874 148.94 24.2309 148.67 24.4301 148.643C24.5223 148.637 24.6174 148.631 24.7096 148.628C24.8998 148.628 24.8879 148.905 24.7185 148.905C24.6293 148.908 24.5401 148.914 24.4509 148.92H24.448ZM25.5181 148.94C25.3427 148.917 25.3725 148.646 25.5538 148.667C25.6489 148.679 25.7411 148.694 25.8333 148.712C26.0057 148.756 25.97 149.006 25.7827 148.982C25.6935 148.964 25.6073 148.949 25.5181 148.94ZM26.5408 149.217C26.3802 149.149 26.4813 148.893 26.6537 148.967C26.7429 149.009 26.8261 149.053 26.9124 149.098C27.0669 149.184 26.9332 149.428 26.7726 149.336C26.6953 149.291 26.621 149.253 26.5408 149.217ZM27.3761 149.823C27.2572 149.681 27.4712 149.508 27.5842 149.645C27.6466 149.716 27.7091 149.797 27.7626 149.877C27.8636 150.052 27.611 150.165 27.5337 150.026C27.4861 149.954 27.4326 149.886 27.3761 149.82V149.823ZM27.825 150.736C27.8012 150.552 28.0509 150.51 28.0955 150.685C28.1133 150.781 28.1282 150.876 28.1342 150.977C28.1342 151.161 27.8815 151.176 27.8607 150.995C27.8547 150.908 27.8428 150.822 27.828 150.739L27.825 150.736ZM27.7685 151.759C27.8072 151.604 28.0806 151.646 28.0301 151.842C28.0034 151.937 27.9677 152.023 27.932 152.112C27.8607 152.276 27.608 152.172 27.6793 152.002C27.715 151.922 27.7418 151.842 27.7685 151.756V151.759ZM27.2602 152.662C27.3702 152.532 27.5872 152.698 27.4653 152.844C27.4029 152.915 27.3345 152.986 27.2661 153.052C27.1234 153.171 26.951 152.977 27.0788 152.85C27.1413 152.79 27.2037 152.728 27.2602 152.662ZM26.4367 153.31C26.5883 153.224 26.731 153.459 26.5675 153.554C26.4813 153.599 26.3981 153.64 26.3089 153.679C26.1394 153.753 26.0354 153.498 26.1989 153.429C26.2792 153.394 26.3565 153.352 26.4367 153.31ZM25.4468 153.682C25.6103 153.64 25.6935 153.905 25.5033 153.952C25.4081 153.973 25.319 153.991 25.2238 154.006C25.0425 154.03 25.0098 153.756 25.1882 153.733C25.2744 153.718 25.3606 153.703 25.4468 153.682ZM24.3944 153.75C24.5817 153.774 24.5401 154.048 24.3677 154.024C24.2726 154.015 24.1715 154 24.0823 153.982C23.892 153.935 23.9753 153.673 24.1388 153.715C24.222 153.73 24.3142 153.744 24.3974 153.753L24.3944 153.75ZM23.3867 153.465C23.5502 153.557 23.4313 153.783 23.2678 153.712C23.1816 153.67 23.0954 153.625 23.0121 153.575C22.8605 153.489 22.9913 153.245 23.1548 153.34C23.2291 153.382 23.3094 153.426 23.3867 153.462V153.465ZM22.5186 152.864C22.6554 153.001 22.4503 153.186 22.3314 153.067C22.263 153.001 22.1946 152.936 22.1292 152.864C22.0044 152.713 22.2273 152.549 22.3343 152.677C22.3938 152.74 22.4592 152.805 22.5216 152.864H22.5186ZM21.8379 152.047C21.936 152.222 21.6892 152.338 21.606 152.196C21.5555 152.118 21.5049 152.035 21.4574 151.955C21.3652 151.794 21.606 151.661 21.6952 151.815C21.7398 151.892 21.7873 151.97 21.8349 152.044L21.8379 152.047ZM21.0382 150.064C21.0798 150.225 20.8153 150.311 20.7677 150.118C20.7499 150.026 20.732 149.933 20.7172 149.841C20.6934 149.651 20.9669 149.63 20.9877 149.8C21.0055 149.889 21.0204 149.975 21.0382 150.064ZM20.9074 148.997C20.9074 149.187 20.6309 149.175 20.6309 149.006C20.628 148.914 20.625 148.819 20.625 148.726C20.625 148.545 20.9015 148.545 20.9015 148.726C20.9015 148.816 20.9015 148.908 20.9074 148.997ZM20.949 147.921C20.9252 148.099 20.6547 148.066 20.6755 147.885C20.6874 147.793 20.6993 147.698 20.7142 147.606C20.735 147.442 21.0085 147.457 20.9847 147.653C20.9669 147.736 20.9579 147.832 20.949 147.921ZM21.1631 146.862C21.1215 147.026 20.8509 146.975 20.8985 146.785C20.9252 146.696 20.952 146.607 20.9817 146.518C21.0501 146.336 21.3028 146.446 21.2433 146.604C21.2136 146.69 21.1869 146.776 21.1631 146.862ZM21.5466 145.858C21.4455 146.033 21.2196 145.876 21.2998 145.736C21.3414 145.65 21.3831 145.566 21.4276 145.486C21.5228 145.323 21.7546 145.468 21.6684 145.617C21.6268 145.697 21.5882 145.777 21.5466 145.858ZM22.0906 144.927C21.9865 145.073 21.7606 144.912 21.8676 144.767C21.9211 144.689 21.9776 144.615 22.0311 144.541C22.156 144.392 22.3581 144.579 22.2481 144.71C22.1946 144.785 22.1411 144.856 22.0906 144.93V144.927ZM22.7773 144.095C22.6465 144.226 22.4562 144.027 22.5811 143.902C22.6465 143.836 22.7119 143.771 22.7802 143.705C22.9021 143.584 23.1043 143.771 22.9705 143.905C22.9051 143.967 22.8397 144.029 22.7773 144.095ZM23.5859 143.378C23.458 143.482 23.2678 143.286 23.4194 143.158C23.4937 143.102 23.568 143.045 23.6453 142.992C23.788 142.888 23.9545 143.111 23.8029 143.218C23.7285 143.268 23.6572 143.322 23.5859 143.375V143.378ZM24.4896 142.784C24.335 142.873 24.1953 142.635 24.3558 142.543C24.4361 142.496 24.5193 142.451 24.6025 142.409C24.7452 142.326 24.8998 142.555 24.7274 142.653C24.6471 142.695 24.5669 142.739 24.4896 142.784ZM25.4646 142.308C25.3011 142.377 25.1882 142.127 25.3606 142.053C25.4468 142.017 25.533 141.981 25.6192 141.949C25.7887 141.886 25.8868 142.142 25.7143 142.207C25.6311 142.24 25.5449 142.273 25.4646 142.308ZM26.4873 141.943C26.297 141.99 26.2465 141.72 26.41 141.678L26.6775 141.601C26.8588 141.556 26.9183 141.824 26.7489 141.865L26.4873 141.943ZM27.5426 141.675C27.3821 141.717 27.2958 141.452 27.4891 141.408C27.5783 141.387 27.6704 141.372 27.7626 141.354C27.9617 141.33 27.9736 141.604 27.8131 141.625C27.7239 141.642 27.6347 141.657 27.5456 141.675H27.5426Z" fill="#859AC6"/>
<path fill-rule="evenodd" clip-rule="evenodd" d="M252.291 58.9883C251.242 60.3617 249.274 60.6263 247.897 59.5769C246.521 58.5275 246.259 56.5596 247.309 55.1861C250.097 51.5564 253.7 48.5807 257.841 46.5384C261.839 44.5645 266.331 43.4557 271.064 43.4557C275.797 43.4557 280.288 44.5645 284.29 46.5384C288.431 48.5807 292.034 51.5564 294.822 55.1861C295.871 56.5596 295.607 58.5275 294.233 59.5769C292.857 60.6263 290.889 60.3647 289.84 58.9883C287.637 56.1196 284.789 53.7681 281.516 52.1539C278.377 50.6051 274.827 49.7341 271.064 49.7341C267.3 49.7341 263.751 50.6051 260.612 52.1539C257.339 53.7681 254.491 56.1196 252.288 58.9883H252.291ZM271.067 68.9529C273.983 68.9529 276.352 71.3192 276.352 74.2355C276.352 77.1518 273.986 79.5181 271.067 79.5181C268.148 79.5181 265.784 77.1518 265.784 74.2355C265.784 71.3192 268.151 68.9529 271.067 68.9529ZM261.495 67.7014C262.485 66.0426 263.894 64.6603 265.576 63.706C267.184 62.7934 269.057 62.2702 271.067 62.2702C273.076 62.2702 274.949 62.7934 276.558 63.706C278.237 64.6603 279.649 66.0426 280.639 67.7014C281.525 69.1848 283.448 69.6664 284.932 68.7805C286.415 67.8946 286.897 65.9713 286.011 64.4879C284.465 61.9046 282.268 59.7493 279.649 58.26C277.108 56.8152 274.176 55.9888 271.067 55.9888C267.957 55.9888 265.026 56.8152 262.485 58.26C259.863 59.7493 257.666 61.9016 256.123 64.4879C255.237 65.9713 255.719 67.8946 257.202 68.7805C258.685 69.6664 260.609 69.1848 261.495 67.7014Z" fill="white"/>
</g>
<defs>
<clipPath id="clip0_1_1100">
<rect width="355.704" height="226" fill="white"/>
</clipPath>
</defs>
</svg>
